{
  "accessors": [
    {
      "bufferView": 2,
      "componentType": 5126,
      "count": 5184,
      "max": [
        55.02826690673828,
        -10.564024925231934,
        164.2698211669922
      ],
      "min": [
        -25.2818660736084,
        -39.87937545776367,
        51.71502685546875
      ],
      "type": "VEC3"
    },
    {
      "bufferView": 2,
      "byteOffset": 62208,
      "componentType": 5126,
      "count": 5184,
      "max": [
        0.940567672252655,
        0.7201884984970093,
        0.9665049910545349
      ],
      "min": [
        -0.9866152405738831,
        -0.999970018863678,
        -0.9737051129341125
      ],
      "type": "VEC3"
    },
    {
      "bufferView": 1,
      "componentType": 5126,
      "count": 5184,
      "max": [
        1.0245012044906616,
        1.0354835987091064
      ],
      "min": [
        -0.03922291100025177,
        -0.028240419924259186
      ],
      "type": "VEC2"
    },
    {
      "bufferView": 0,
      "componentType": 5125,
      "count": 30246,
      "type": "SCALAR"
    }
  ],
  "asset": {
    "extras": {
      "author": "rezlout (https://sketchfab.com/rezlout)",
      "license": "CC-BY-4.0 (http://creativecommons.org/licenses/by/4.0/)",
      "source": "https://sketchfab.com/3d-models/722efc94f480412eba621acaeb8e6952",
      "title": "бандана"
    },
    "generator": "Sketchfab-13.83.0",
    "version": "2.0"
  },
  "bufferViews": [
    {
      "buffer": 0,
      "byteLength": 120984,
      "name": "floatBufferViews",
      "target": 34963
    },
    {
      "buffer": 0,
      "byteLength": 41472,
      "byteOffset": 120984,
      "byteStride": 8,
      "name": "floatBufferViews",
      "target": 34962
    },
    {
      "buffer": 0,
      "byteLength": 124416,
      "byteOffset": 162456,
      "byteStride": 12,
      "name": "floatBufferViews",
      "target": 34962
    }
  ],
  "buffers": [
    {
      "byteLength": 286872,
      "uri": "scene.bin"
    }
  ],
  "materials": [
    {
      "doubleSided": true,
      "name": "Material.004",
      "pbrMetallicRoughness": {
        "baseColorFactor": [
          0.8,
          0.8,
          0.8,
          1.0
        ],
        "metallicFactor": 0.0,
        "roughnessFactor": 0.9793440010331642
      }
    }
  ],
  "meshes": [
    {
      "name": "cloth_parent.003_Material.004_0",
      "primitives": [
        {
          "attributes": {
            "NORMAL": 1,
            "POSITION": 0,
            "TEXCOORD_0": 2
          },
          "indices": 3,
          "material": 0,
          "mode": 4
        }
      ]
    }
  ],
  "nodes": [
    {
      "children": [
        1
      ],
      "matrix": [
        1.0,
        0.0,
        0.0,
        0.0,
        0.0,
        2.220446049250313e-16,
        -1.0,
        0.0,
        0.0,
        1.0,
        2.220446049250313e-16,
        0.0,
        0.0,
        0.0,
        0.0,
        1.0
      ],
      "name": "Sketchfab_model"
    },
    {
      "children": [
        2
      ],
      "matrix": [
        0.009999999776482582,
        0.0,
        0.0,
        0.0,
        0.0,
        0.0,
        0.009999999776482582,
        0.0,
        0.0,
        -0.009999999776482582,
        0.0,
        0.0,
        0.0,
        0.0,
        0.0,
        1.0
      ],
      "name": "7cf6661f95b0460db1eb3462d8efea35.fbx"
    },
    {
      "children": [
        3
      ],
      "name": "RootNode"
    },
    {
      "children": [
        4
      ],
      "matrix": [
        1.6070146560668945,
        0.0,
        0.0,
        0.0,
        -0.0,
        -2.6181591955904875e-07,
        -1.6070146560668732,
        0.0,
        0.0,
        1.6070146560668732,
        -2.6181591955904875e-07,
        0.0,
        -13.455438613891602,
        0.0,
        0.0,
        1.0
      ],
      "name": "cloth_parent.003"
    },
    {
      "mesh": 0,
      "name": "cloth_parent.003_Material.004_0"
    }
  ],
  "scene": 0,
  "scenes": [
    {
      "name": "Sketchfab_Scene",
      "nodes": [
        0
      ]
    }
  ]
}
